<?xml version="1.0" encoding="utf-8"?><svg xmlns="http://www.w3.org/2000/svg" xmlns:xlink="http://www.w3.org/1999/xlink"><symbol class="asvg-inline--fa afa-angle-right afa-w-8" viewBox="0 0 256 512" id="angle-right-solid" xmlns="http://www.w3.org/2000/svg"><path d="M224.3 273l-136 136c-9.4 9.4-24.6 9.4-33.9 0l-22.6-22.6c-9.4-9.4-9.4-24.6 0-33.9l96.4-96.4-96.4-96.4c-9.4-9.4-9.4-24.6 0-33.9L54.3 103c9.4-9.4 24.6-9.4 33.9 0l136 136c9.5 9.4 9.5 24.6.1 34z"/></symbol><symbol class="bsvg-inline--fa bfa-comment bfa-w-16" viewBox="0 0 512 512" id="comment-solid" xmlns="http://www.w3.org/2000/svg"><path d="M256 32C114.6 32 0 125.1 0 240c0 49.6 21.4 95 57 130.7C44.5 421.1 2.7 466 2.2 466.5c-2.2 2.3-2.8 5.7-1.5 8.7S4.8 480 8 480c66.3 0 116-31.8 140.6-51.4 32.7 12.3 69 19.4 107.4 19.4 141.4 0 256-93.1 256-208S397.4 32 256 32z"/></symbol><symbol class="csvg-inline--fa cfa-external-link-alt cfa-w-18" viewBox="0 0 576 512" id="external-link-alt-solid" xmlns="http://www.w3.org/2000/svg"><path d="M576 24v127.984c0 21.461-25.96 31.98-40.971 16.971l-35.707-35.709-243.523 243.523c-9.373 9.373-24.568 9.373-33.941 0l-22.627-22.627c-9.373-9.373-9.373-24.569 0-33.941L442.756 76.676l-35.703-35.705C391.982 25.9 402.656 0 424.024 0H552c13.255 0 24 10.745 24 24zM407.029 270.794l-16 16A23.999 23.999 0 0 0 384 303.765V448H64V128h264a24.003 24.003 0 0 0 16.97-7.029l16-16C376.089 89.851 365.381 64 344 64H48C21.49 64 0 85.49 0 112v352c0 26.51 21.49 48 48 48h352c26.51 0 48-21.49 48-48V287.764c0-21.382-25.852-32.09-40.971-16.97z"/></symbol><symbol class="dsvg-inline--fa dfa-facebook-f dfa-w-9" viewBox="0 0 264 512" id="facebook-f-brands" xmlns="http://www.w3.org/2000/svg"><path d="M76.7 512V283H0v-91h76.7v-71.7C76.7 42.4 124.3 0 193.8 0c33.3 0 61.9 2.5 70.2 3.6V85h-48.2c-37.8 0-45.1 18-45.1 44.3V192H256l-11.7 91h-73.6v229"/></symbol><symbol class="esvg-inline--fa efa-heart efa-w-16" viewBox="0 0 512 512" id="heart-solid" xmlns="http://www.w3.org/2000/svg"><path d="M462.3 62.6C407.5 15.9 326 24.3 275.7 76.2L256 96.5l-19.7-20.3C186.1 24.3 104.5 15.9 49.7 62.6c-62.8 53.6-66.1 149.8-9.9 207.9l193.5 199.8c12.5 12.9 32.8 12.9 45.3 0l193.5-199.8c56.3-58.1 53-154.3-9.8-207.9z"/></symbol><symbol class="fsvg-inline--fa ffa-instagram ffa-w-14" viewBox="0 0 448 512" id="instagram-brands" xmlns="http://www.w3.org/2000/svg"><path d="M224.1 141c-63.6 0-114.9 51.3-114.9 114.9s51.3 114.9 114.9 114.9S339 319.5 339 255.9 287.7 141 224.1 141zm0 189.6c-41.1 0-74.7-33.5-74.7-74.7s33.5-74.7 74.7-74.7 74.7 33.5 74.7 74.7-33.6 74.7-74.7 74.7zm146.4-194.3c0 14.9-12 26.8-26.8 26.8-14.9 0-26.8-12-26.8-26.8s12-26.8 26.8-26.8 26.8 12 26.8 26.8zm76.1 27.2c-1.7-35.9-9.9-67.7-36.2-93.9-26.2-26.2-58-34.4-93.9-36.2-37-2.1-147.9-2.1-184.9 0-35.8 1.7-67.6 9.9-93.9 36.1s-34.4 58-36.2 93.9c-2.1 37-2.1 147.9 0 184.9 1.7 35.9 9.9 67.7 36.2 93.9s58 34.4 93.9 36.2c37 2.1 147.9 2.1 184.9 0 35.9-1.7 67.7-9.9 93.9-36.2 26.2-26.2 34.4-58 36.2-93.9 2.1-37 2.1-147.8 0-184.8zM398.8 388c-7.8 19.6-22.9 34.7-42.6 42.6-29.5 11.7-99.5 9-132.1 9s-102.7 2.6-132.1-9c-19.6-7.8-34.7-22.9-42.6-42.6-11.7-29.5-9-99.5-9-132.1s-2.6-102.7 9-132.1c7.8-19.6 22.9-34.7 42.6-42.6 29.5-11.7 99.5-9 132.1-9s102.7-2.6 132.1 9c19.6 7.8 34.7 22.9 42.6 42.6 11.7 29.5 9 99.5 9 132.1s2.7 102.7-9 132.1z"/></symbol><symbol viewBox="0.182 0.548 511.304 171.879" id="instagram-name" xmlns="http://www.w3.org/2000/svg"><path d="M47.5 1c-3.4 1.3-9 8.3-12.3 15.2-4.5 9.6-6.5 18.1-6.5 27.9 0 7.1.4 9.4 2.7 14.5 1.5 3.2 3.9 7.2 5.4 8.8 3.4 3.6 9.7 6.5 14 6.6 2.7 0 3.2.4 3.2 2.5 0 1.4-.9 4.7-1.9 7.5-4.4 11.5-13.3 18-25 18-8.3 0-14.3-2.7-16.5-7.4-2.7-5.7-2.1-9.2 2.5-14.8 3.1-3.6 4.3-6 4.7-9.3.4-4 .2-4.6-1.9-5.3-5.7-2.1-12.8 3.2-15 11-.6 2.4-.9 6.9-.6 10.1 1.5 16.4 13.8 24.8 34.2 23.4 11.2-.8 17-3 23.1-9.2C64 94.2 66.7 87.1 68 74.1c1.1-11 1.3-53.1.4-64.4-.7-7.6-.7-7.7-3.8-8.1C57.5.5 49.4.2 47.5 1zm6.2 14.2c.6.8.8 10.6.5 24.5-.4 21.6-.6 23.3-2.3 23.8-3.3 1.1-7.3-1.7-9.9-7-2.3-4.5-2.5-6.2-2.5-17 0-13 1.1-17.7 5.2-22.5 2.6-3.2 7.2-4.1 9-1.8zM174.6 3.7c-.3.8-.6 3.8-.6 6.6 0 2.9-.3 8.2-.7 11.9l-.6 6.8h-4.6c-4.5 0-11.8 1.4-12.8 2.3-.2.3 0 1.4.6 2.5 1 1.8 3.1 2.6 13.9 4.8l2.2.4-.2 23.8c-.3 20.8-.1 24.5 1.6 29.9 3.2 10.6 10.5 17 17.9 15.6 3.7-.7 8.6-6 11.9-12.8 1.5-3.3 2.8-5.1 2.8-4 0 3.3 4.7 12.2 7.2 13.9 1.3.9 4.8 2 7.7 2.6 8.6 1.6 13.6-2 18.7-13.6l1.6-3.9.9 2.9c1.1 4 6.5 9.3 10.1 10 3.9.8 9.1-1.5 11.8-5.2l2.3-3.1 2.1 4.2c2.8 5.4 5.8 7.5 13 8.8 5.3.9 6.2.9 8.5-.9 1.4-1 3.8-4.1 5.3-6.8l2.8-4.9v11.9l-7.4 7.3c-8.2 8-14.2 18.5-17.1 29.8-4.9 19.3 1.3 27.8 20.4 27.9 8.2.1 8.3.1 11.1-3.2 4.7-5.6 5.4-9.8 6-35.2l.5-23.5h3.2c1.8 0 3.8-.6 4.5-1.3 1.1-1.1.9-1.7-1.1-3.3-1.3-1-3.5-1.9-4.9-1.9h-2.5l.5-16.3c.4-12.5.9-17 2.2-19.5l1.7-3.3-3.3-1.3-3.3-1.4v-9c0-8.6-.2-9.2-2.8-12-1.5-1.6-4.7-3.4-7-4.1-2.3-.6-6.3-2.1-8.9-3.3-5.5-2.5-8.4-2-13.2 2.2-6.8 6-10.2 17.8-11.5 39.5-.8 13.9-2.3 18.8-6.1 20-2.8.9-4.7-.9-6-5.4-1.3-4.9-1.3-16.2.2-21.8 1.1-4.4 1-4.7-1.4-6.7-2.3-1.9-2.6-3-3-10.4-.6-10.5-2.1-12.6-11.4-16.4-18.6-7.6-27.9.8-31.4 28.6-.5 4.3-1.4 8.4-1.9 9s-1.7 4.2-2.5 7.9c-2 8.4-4.8 14.2-8.2 16.3-2.4 1.6-2.6 1.6-4.5-.3-3-3-3.9-12.4-3.3-33.3.7-26.2.3-24.7 7-25.6 3.1-.3 8.5-.7 12-.7 6.9-.1 7.9-1 4.4-4.2-1.6-1.4-4.3-2-11.8-2.4l-9.7-.6.2-7c.1-3.9.5-9.2.8-11.8.6-4.7.5-4.8-2.7-6.1-5.6-2.2-10.6-2.7-11.2-.9zm120.1 41.7c2.6 2.3 2.8 2.9 2.7 9.8-.2 13.5-2.8 28.7-6.1 35.3-2.3 4.6-6.4 8.5-9 8.5-1.3 0-3-1.1-4-2.7-2.7-4-2.6-30.4.1-38.3 2.6-7.8 5.4-12 9-13.6 4.1-1.8 4.1-1.8 7.3 1zm-57.9 2.1c2.7 3.5 3.7 10.8 1.8 13.7-.8 1.3-1.9 7.1-2.5 13-1.5 13.4-3.5 20.4-7.1 24-4.2 4.1-7.7 3.8-9.7-1-3.9-9.1-2.3-35.4 2.8-45.3 3.6-7.1 10.9-9.3 14.7-4.4zM297 148.3c-1.8 11.6-6.1 17.6-11.6 16.3-5.2-1.3-6.8-10.7-3.9-22.1 2.2-8.3 7.5-19.2 12.1-24.5l3.9-4.4.3 13.9c.1 7.7-.2 17.1-.8 20.8z"/><path d="M372.5 36.4c-5.1 5.3-8.1 13.3-9.6 26.1-1.4 12-5.4 27.8-8.2 32.9-1.7 3.1-2.8 4.1-4.7 4.1-4 0-5.3-5.5-4.7-20.5.4-9.1 1.1-14.5 2.8-19.9l2.3-7.4-2.2-1.8c-1.4-1.1-4.8-2-9-2.4-3.7-.3-7.4-.7-8.2-.8-1-.2-1.5-1.5-1.5-4.2-.1-5.7-1.1-6.8-5.2-6.2-6.1 1-6.1 1.2-5.6 18 .4 9.8.1 17.9-.7 22.7-1.8 10.6-1.7 11.4.3 11.8 2.7.6 5.3-6.6 7.4-20.8l1.9-12.5h5.9l-.4 13c-.6 25.5 4.7 38.5 15.7 38.5 4.6 0 8.6-3.1 11.5-9l2.5-4.9 1.6 4.3c.9 2.3 2.9 5.4 4.4 6.8 3.3 3.1 12.6 5.4 16.4 3.9 3.3-1.2 7.6-6.5 10.3-12.4l2.1-4.9 1.9 4.2c4.8 10.7 15.8 11.5 22.3 1.7l2.7-4.1.6 5.2c.9 6.6 2 7.9 7.5 8.8 8.7 1.3 8.7 1.2 10.7-13.8 1.7-13.5 4.3-24.8 5.8-24.8.4 0 .9 6.7 1.1 14.9.3 12.9.6 15.2 2.2 17 3.9 4.3 13.6 3.6 13.6-1 0-3.5 4-18 7.3-26.4l3.2-8 .5 14c.4 12.4.8 14.6 3 18.9 1.4 2.8 3.7 5.9 5.2 7 3.7 2.7 10.8 2.7 14.4 0 7.7-5.7 15.7-30.4 9.9-30.4-1.8 0-3 2.4-4 7.5-2.3 12.8-10 20.1-13.5 12.7-2.1-4.3-2.4-21.5-.5-29.7 3-13 3.1-12-.9-15-2.5-1.9-5.3-3-8.5-3.3l-4.7-.4-2.6 5.8c-1.5 3.3-4.8 12-7.5 19.4l-4.8 13.5-.3-15.2-.3-15.3-2.9-1.5c-8-4.1-12.2-.4-16.9 15.1-1.8 6-3.4 11.3-3.6 11.9-.2.5-.4-7.6-.4-18.2-.1-11.9-.5-19.4-1.1-19.8-.6-.4-3.5-.9-6.4-1.2l-5.4-.6-.4 18.9c-.4 15.9-.8 19.9-2.6 25.5-3.9 11.7-8.9 15.3-11.8 8.4-1.7-4.1-1.9-19.2-.3-25 1-3.6.9-4.1-1.4-6-2.1-1.7-2.5-3.2-3.1-9.9-.8-8.9-2.3-12.7-5.8-14.2-10.5-4.9-12.3-5.4-17.5-5.4-5.4 0-5.9.2-9.8 4.4zM392 46c3.3 1.8 5.5 13.1 3 15.6-.5.5-1.5 5.7-2 11.4-1.4 13.6-3.6 21.3-7.1 25.1-3.7 3.9-7.8 3.7-9.8-.5-3.4-7.2-3.2-27.5.4-40 3-10.1 9.3-14.9 15.5-11.6zM80.6 39.8c-.8 1.4-2.9 48.8-2.4 54.4.7 6.6 2.9 8.8 8.7 8.8 2.5 0 5.1-.4 5.7-.8.7-.4 1.9-4.5 2.8-9.2 1.9-9.3 4.9-19.1 7.1-23 1.3-2.3 1.4-1.4 1.5 9.5 0 13.3 1.4 17.9 6 20.3 3.3 1.7 9.6.9 13.2-1.8 3-2.2 3-2.2 4.4-.2 3.2 4.6 17 7.3 26.7 5.2 7.3-1.5 11.7-5 11.7-9.4 0-4.3-1.5-6.2-11.9-14.6-10.4-8.4-12.1-10.6-12.1-15.5 0-7.2 8.9-11.5 14.1-6.9 2.4 2.2 4.5 1.7 7.4-1.7 2.1-2.5 2.5-4 2.3-7.3-.3-3.4-.8-4.3-3.3-5.5-5.6-2.7-23.9 2.2-30.4 8.2-5.2 4.8-6.4 12.2-3.1 18.6 1.5 3.1 1.7 4 .6 4.4-.7.3-1.6 2.5-2 4.8-1.6 10.1-6.9 17-10.5 13.5-1.3-1.4-1.6-4.4-1.8-18-.1-12.5-.5-17.1-1.7-19.4-1.7-3.3-5.6-4.8-8.6-3.2-2.5 1.3-6.5 8.2-10.1 17.3l-2.8 7.2-.1-16.2c0-15.7-.1-16.3-2.2-17.7-3.1-1.9-8.5-2.9-9.2-1.8zm66.9 47.5c2.4 2.1 4.5 4.6 4.8 5.7 1.5 5.6-6.7 7.2-13.1 2.5-2.1-1.5-4.9-3.5-6.5-4.4-1.7-1-2.5-2.1-2.1-3.1.3-.8 1.1-4 1.7-7.1l1.1-5.7 5 4.2c2.7 2.2 6.8 5.8 9.1 7.9z"/></symbol><symbol viewBox="0 0 113.386 113.386" id="instagram-photo" xmlns="http://www.w3.org/2000/svg"><defs><path id="ha" d="M0 0h113.386v113.386H0z"/></defs><clipPath id="hb"><use xlink:href="#ha" overflow="visible"/></clipPath><path d="M100.136 47.884h-9.854c.718 2.787 1.142 5.699 1.142 8.71 0 19.238-15.592 34.83-34.827 34.83-19.234 0-34.827-15.592-34.827-34.83 0-3.011.426-5.923 1.144-8.71h-9.855v47.893c0 2.401 1.95 4.35 4.358 4.35h78.361a4.354 4.354 0 0 0 4.358-4.35V47.884zm0-30.473a4.355 4.355 0 0 0-4.358-4.353H82.72a4.354 4.354 0 0 0-4.354 4.353v13.063a4.353 4.353 0 0 0 4.354 4.353h13.058a4.355 4.355 0 0 0 4.358-4.353V17.411zm-43.54 17.416c-12.023 0-21.768 9.744-21.768 21.767 0 12.021 9.745 21.77 21.768 21.77s21.77-9.749 21.77-21.77c0-12.023-9.747-21.767-21.77-21.767m43.54 78.365H13.058C5.847 113.192 0 107.343 0 100.126V13.058C0 5.846 5.847 0 13.058 0h87.078c7.212 0 13.058 5.846 13.058 13.058v87.068c-.001 7.217-5.846 13.066-13.058 13.066" clip-path="url(#hb)" fill-rule="evenodd" clip-rule="evenodd"/></symbol><symbol class="isvg-inline--fa ifa-telegram ifa-w-16" viewBox="0 0 496 512" id="telegram-brands" xmlns="http://www.w3.org/2000/svg"><path d="M248 8C111 8 0 119 0 256s111 248 248 248 248-111 248-248S385 8 248 8zm121.8 169.9l-40.7 191.8c-3 13.6-11.1 16.9-22.4 10.5l-62-45.7-29.9 28.8c-3.3 3.3-6.1 6.1-12.5 6.1l4.4-63.1 114.9-103.8c5-4.4-1.1-6.9-7.7-2.5l-142 89.4-61.2-19.1c-13.3-4.2-13.6-13.3 2.8-19.7l239.1-92.2c11.1-4 20.8 2.7 17.2 19.5z"/></symbol><symbol class="jsvg-inline--fa jfa-twitter jfa-w-16" viewBox="0 0 512 512" id="twitter-brands" xmlns="http://www.w3.org/2000/svg"><path d="M459.37 151.716c.325 4.548.325 9.097.325 13.645 0 138.72-105.583 298.558-298.558 298.558-59.452 0-114.68-17.219-161.137-47.106 8.447.974 16.568 1.299 25.34 1.299 49.055 0 94.213-16.568 130.274-44.832-46.132-.975-84.792-31.188-98.112-72.772 6.498.974 12.995 1.624 19.818 1.624 9.421 0 18.843-1.3 27.614-3.573-48.081-9.747-84.143-51.98-84.143-102.985v-1.299c13.969 7.797 30.214 12.67 47.431 13.319-28.264-18.843-46.781-51.005-46.781-87.391 0-19.492 5.197-37.36 14.294-52.954 51.655 63.675 129.3 105.258 216.365 109.807-1.624-7.797-2.599-15.918-2.599-24.04 0-57.828 46.782-104.934 104.934-104.934 30.213 0 57.502 12.67 76.67 33.137 23.715-4.548 46.456-13.32 66.599-25.34-7.798 24.366-24.366 44.833-46.132 57.827 21.117-2.273 41.584-8.122 60.426-16.243-14.292 20.791-32.161 39.308-52.628 54.253z"/></symbol><symbol class="ksvg-inline--fa kfa-youtube kfa-w-18" viewBox="0 0 576 512" id="youtube-brands" xmlns="http://www.w3.org/2000/svg"><path d="M549.655 124.083c-6.281-23.65-24.787-42.276-48.284-48.597C458.781 64 288 64 288 64S117.22 64 74.629 75.486c-23.497 6.322-42.003 24.947-48.284 48.597-11.412 42.867-11.412 132.305-11.412 132.305s0 89.438 11.412 132.305c6.281 23.65 24.787 41.5 48.284 47.821C117.22 448 288 448 288 448s170.78 0 213.371-11.486c23.497-6.321 42.003-24.171 48.284-47.821 11.412-42.867 11.412-132.305 11.412-132.305s0-89.438-11.412-132.305zm-317.51 213.508V175.185l142.739 81.205-142.739 81.201z"/></symbol></svg>